<?xml version="1.0" encoding="UTF-8"?>
<!DOCTYPE svg PUBLIC "-//W3C//DTD SVG 1.1//EN" "http://www.w3.org/Graphics/SVG/1.1/DTD/svg11.dtd">
<!-- Creator: CorelDRAW 2019 (64-Bit) -->
<svg xmlns="http://www.w3.org/2000/svg" xml:space="preserve" width="400px" height="58px" version="1.1" style="shape-rendering:geometricPrecision; text-rendering:geometricPrecision; image-rendering:optimizeQuality; fill-rule:evenodd; clip-rule:evenodd" viewBox="0 0 262.92 38.15" xmlns:xlink="http://www.w3.org/1999/xlink" xmlns:xodm="http://www.corel.com/coreldraw/odm/2003">
 <defs>
  <style type="text/css">
   <![CDATA[
    .fil0 {fill:#221E1F}
    .fil2 {fill:#373435}
    .fil1 {fill:#E63135}
    .fil3 {fill:#E53034;fill-rule:nonzero}
   ]]>
  </style>
 </defs>
 <g id="Layer_x0020_1">
  <metadata id="CorelCorpID_0Corel-Layer"/>
  <g id="_2387181124512">
   <path class="fil0" d="M144.27 8.46l0 12c0,0.62 0.47,1.3 1.07,1.3 0.54,0 0.88,-0.05 1.17,-0.62 0.19,-0.38 0.18,-0.78 0.18,-1.35l0 -9.27c0.15,0.17 0.98,4.13 1.08,4.52 0.06,0.23 0.13,0.51 0.18,0.76 0.05,0.27 0.12,0.52 0.17,0.77 0.05,0.26 0.12,0.5 0.17,0.73 0.06,0.28 0.1,0.48 0.16,0.77 0.14,0.65 0.57,2.56 0.81,2.96 0.37,0.61 0.75,0.73 1.41,0.73 0.51,0 0.9,-0.29 1.14,-0.7 0.2,-0.35 0.34,-0.97 0.44,-1.43l1.04 -4.52c0.08,-0.33 1.01,-4.37 1.01,-4.59l0.05 9.27c-0.01,0.46 0.05,1 0.19,1.33 0.34,0.77 1.44,0.91 2.01,0.16 0.16,-0.21 0.26,-0.67 0.26,-1.04l0 -11.64c0,-0.42 -0.13,-0.83 -0.35,-1.04 -0.51,-0.52 -1.7,-0.4 -2.47,-0.4 -0.52,0 -0.92,0.18 -1.12,0.5 -0.17,0.28 -0.33,0.84 -0.42,1.23l-1.82 7.59c-0.04,0.17 -0.02,0.23 -0.14,0.31 0,-0.2 -0.09,-0.46 -0.14,-0.66l-1.09 -4.59c-0.12,-0.46 -0.21,-0.83 -0.31,-1.3 -0.12,-0.52 -0.51,-2.19 -0.73,-2.55 -0.44,-0.7 -1.54,-0.53 -2.56,-0.53 -0.35,0 -0.8,0.19 -1,0.35 -0.2,0.17 -0.39,0.58 -0.39,0.95l0 0z"/>
   <path class="fil0" d="M71.44 9.22l0 10.71c0,0.77 0.24,1.83 1.12,1.83 0.48,0 0.8,-0.02 1.11,-0.5 0.21,-0.32 0.28,-0.58 0.28,-1.11l0 -8.33c0.15,0.1 0.25,0.36 0.41,0.62l3.11 5.26c0.13,0.24 0.25,0.42 0.38,0.65l1.17 1.97c0.37,0.61 0.9,1.44 1.74,1.44 0.6,0 0.95,0 1.32,-0.55 0.18,-0.26 0.29,-0.85 0.29,-1.28l0 -11.33c0,-0.27 -0.03,-0.54 -0.1,-0.76 -0.08,-0.3 -0.12,-0.37 -0.3,-0.58 -0.5,-0.57 -1.88,-0.52 -2.02,0.85 -0.06,0.53 -0.04,1.14 -0.04,1.74 0,2.39 0,4.78 0,7.17 -0.17,-0.19 -0.13,-0.2 -0.25,-0.39 -0.69,-1.16 -1.79,-2.91 -2.43,-4.06 -0.09,-0.17 -0.16,-0.24 -0.25,-0.42 -0.42,-0.78 -1.32,-2.11 -1.72,-2.85 -0.18,-0.33 -0.91,-1.6 -1.12,-1.83 -0.25,-0.29 -0.47,-0.54 -1.09,-0.56 -0.33,0 -0.75,0.16 -0.95,0.33 -0.53,0.48 -0.66,1.01 -0.66,1.98l0 0z"/>
   <path class="fil0" d="M95.58 8.78l0 11.51c0,0.71 0.42,1.47 1.12,1.47l0.27 0c0.73,0 1.12,-0.84 1.12,-1.61l0.04 -8.28c0.03,0.04 0.03,0.04 0.06,0.08l2.24 3.8c0.41,0.75 1.11,1.83 1.56,2.61 0.31,0.54 1.21,2.11 1.59,2.62 0.52,0.7 0.89,0.78 1.68,0.78 0.16,0 0.4,-0.08 0.52,-0.14 0.45,-0.23 0.69,-0.88 0.69,-1.42l0 -11.87c0,-1.85 -2.33,-1.95 -2.42,-0.05 -0.03,0.56 0,1.19 0,1.75 0,2.34 0,4.69 0,7.03l-1.43 -2.37c-0.09,-0.14 -0.16,-0.24 -0.24,-0.39l-1.21 -2.01c-0.48,-0.87 -1.26,-2.05 -1.68,-2.81l-0.71 -1.21c-0.32,-0.49 -0.87,-1.86 -2.3,-1.2 -0.62,0.29 -0.9,1.01 -0.9,1.71l0 0z"/>
   <path class="fil0" d="M125.46 19.44c-2.62,0 -3.68,-2.57 -3.68,-4.75 0,-1.49 0.1,-2.81 0.88,-3.96 1.03,-1.52 3.03,-1.88 4.52,-0.99 0.98,0.59 1.43,1.53 1.72,2.58 0.17,0.64 0.27,1.79 0.19,2.46 -0.06,0.54 0.05,0.55 -0.17,1.49 -0.08,0.29 -0.17,0.53 -0.27,0.81 -0.23,0.66 -0.82,1.51 -1.45,1.86 -0.48,0.28 -0.98,0.5 -1.74,0.5l0 0zm-6.41 -5.15l0 0c0,1.68 0.34,3.35 1.15,4.71 0.97,1.64 2.85,2.76 4.85,2.76 1.45,0 2.13,-0.01 3.42,-0.65 0.76,-0.38 1.3,-0.89 1.81,-1.51 1.67,-2.05 1.9,-5.79 1.1,-8.41l-0.5 -1.2c-0.24,-0.46 -0.73,-1.13 -1.11,-1.49 -1.12,-1.08 -2.48,-1.48 -4,-1.56 -0.2,-0.01 -0.19,-0.05 -0.4,-0.05l-1.53 0.18c-1.68,0.33 -3.09,1.48 -3.86,2.99 -0.61,1.18 -0.93,2.76 -0.93,4.23l0 0z"/>
   <path class="fil0" d="M252.84 10.88c0,1.5 0.71,2.78 1.92,3.41 1.11,0.56 1.5,0.62 2.56,0.93 1.45,0.43 3,0.6 3,2.42 0,0.28 -0.13,0.65 -0.24,0.84 -0.15,0.25 -0.31,0.4 -0.54,0.58 -0.81,0.66 -2.47,0.75 -3.32,0.18 -0.54,-0.36 -0.85,-0.92 -1.11,-1.54 -0.3,-0.71 -0.42,-1.44 -1.42,-1.44 -0.55,0 -1.07,0.57 -1.07,1.2 0,1.05 0.48,2.21 1.23,2.9 0.42,0.39 0.4,0.38 0.92,0.72 0.97,0.63 2.22,0.68 3.4,0.68 1.42,0 2.78,-0.61 3.55,-1.37 0.12,-0.12 0.15,-0.16 0.25,-0.29 0.92,-1.16 0.95,-1.88 0.95,-3.2l0 -0.13 0 -0.07c0,-1.94 -1.58,-3.01 -3.18,-3.54 -0.42,-0.14 -0.82,-0.27 -1.27,-0.39 -0.98,-0.25 -3.12,-0.72 -3.12,-1.93 0,-0.37 0,-0.72 0.25,-1 0.13,-0.14 0.33,-0.36 0.49,-0.45 0.81,-0.46 2.02,-0.54 2.82,-0.1 1.21,0.68 1.06,2.53 2.31,2.53 0.66,0 1.16,-0.71 1.16,-1.21 0,-0.76 -0.11,-1.29 -0.57,-1.89 -0.62,-0.82 -1.55,-1.45 -2.56,-1.65 -0.51,-0.1 -0.91,-0.13 -1.4,-0.17 -0.21,-0.02 -0.3,0.03 -0.49,0.04 -1.52,0.08 -2.7,0.43 -3.68,1.56 -0.5,0.57 -0.84,1.54 -0.84,2.38l0 0z"/>
   <path class="fil0" d="M174.82 10.08c0.12,0.09 0.16,0.37 0.26,0.67l1.71 5.15 -3.81 0c0.01,-0.18 0.15,-0.53 0.21,-0.73l0.46 -1.43c0.08,-0.25 0.17,-0.45 0.25,-0.73 0.14,-0.49 0.91,-2.68 0.92,-2.93l0 0zm-4.8 11.68l0 0c0.55,0 0.82,0.01 1.12,-0.58 0.19,-0.36 1.03,-2.68 1.12,-3.09l5.24 0 0.73 2.09c0.43,1.09 0.52,1.58 1.56,1.58 0.61,0 1.16,-0.6 1.16,-1.43 0,-0.59 -0.7,-2.31 -0.93,-2.96 -0.06,-0.16 -0.13,-0.31 -0.18,-0.45l-0.53 -1.44c-0.52,-1.54 -1.21,-3.23 -1.73,-4.76l-0.7 -1.9c-0.22,-0.66 -0.49,-1.25 -0.99,-1.61 -0.5,-0.36 -1.45,-0.4 -2,-0.03 -0.11,0.08 -0.22,0.21 -0.32,0.31 -0.17,0.17 -0.17,0.17 -0.28,0.39 -0.61,1.24 -0.92,2.54 -1.42,3.78 -0.42,1.05 -0.92,2.67 -1.37,3.82l-0.34 0.96c-0.11,0.34 -0.21,0.63 -0.34,0.96 -0.23,0.6 -0.88,2.38 -0.94,2.95 -0.08,0.64 0.54,1.41 1.14,1.41l0 0z"/>
   <path class="fil0" d="M228.79 13.97c0,1.85 0.14,3.07 0.94,4.66 0.23,0.47 0.46,0.83 0.79,1.22 0.45,0.54 0.35,0.39 0.81,0.81 0.09,0.07 0.12,0.11 0.23,0.17 1.39,0.87 2.16,0.93 3.9,0.93 0.79,0 1.4,-0.22 1.97,-0.45 0.74,-0.3 1.53,-0.97 1.99,-1.63 0.58,-0.83 1.66,-3 0.41,-3.8 -0.41,-0.26 -1.1,-0.22 -1.38,0.14 -0.32,0.43 -0.38,0.87 -0.6,1.37 -0.54,1.3 -1.47,2.05 -2.97,2.05 -4,0 -3.89,-6.26 -2.66,-8.48 0.61,-1.1 1.46,-1.69 2.93,-1.69 1.14,0 2.03,0.71 2.54,1.67 0.08,0.16 0.14,0.25 0.22,0.4 0.35,0.66 0.47,1.13 1.21,1.22 0.67,0.08 1.22,-0.56 1.22,-1.19 0,-0.95 -0.32,-1.61 -0.8,-2.28 -0.81,-1.12 -2.2,-1.91 -3.63,-2.11 -0.22,-0.03 -0.42,-0.02 -0.67,-0.05 -1.21,-0.13 -2.84,0.4 -3.77,1.12 -0.59,0.47 -0.97,0.84 -1.39,1.48 -0.82,1.23 -1.29,2.86 -1.29,4.44z"/>
   <path class="fil0" d="M190.36 8.24c0,0.41 0.01,0.73 0.32,1.02 0.18,0.17 0.5,0.32 0.84,0.32l3.05 0 0 10.71c0,0.76 0.5,1.47 1.16,1.47l0.23 0c0.85,0 1.25,-0.8 1.25,-1.65l0 -10.53 3 0c1.64,0 1.58,-2.42 0.05,-2.42l-8.74 0c-0.6,0 -1.16,0.46 -1.16,1.08l0 0z"/>
   <path class="fil0" d="M213.38 8.73l0 11.24c0,0.83 0.3,1.79 1.25,1.79 1.08,0 1.44,-0.78 1.44,-1.83l0 -11.2c0,-1.56 -1,-2.13 -1.95,-1.67 -0.57,0.28 -0.74,0.99 -0.74,1.67z"/>
   <path class="fil0" d="M55.5 8.87l0 10.92c0,0.83 0.26,1.97 1.2,1.97 0.57,0 0.84,-0.05 1.18,-0.52 0.2,-0.26 0.3,-0.74 0.3,-1.18l0 -11.37c0,-0.53 -0.09,-0.97 -0.33,-1.28 -0.21,-0.28 -0.62,-0.54 -1.08,-0.5 -0.98,0.1 -1.27,0.91 -1.27,1.96l0 0z"/>
   <path class="fil1" d="M213.29 4.03c0,0.35 0.17,0.75 0.35,0.95 0.74,0.84 2.2,0.43 2.2,-0.99 0,-0.36 -0.15,-0.69 -0.32,-0.89 -0.12,-0.14 -0.17,-0.16 -0.33,-0.25 -0.84,-0.51 -1.9,0.19 -1.9,1.18l0 0z"/>
   <g id="_2679584644864">
    <path class="fil1" d="M10.66 10.16c0.18,-0.11 0.83,-0.9 1.06,-1.13l0.85 -0.8c0.43,-0.36 1.03,-0.94 1.53,-1.25 0.59,-0.38 1.52,-0.86 2.14,-1.17 3.35,-1.69 7.51,-1.93 11.11,-0.91 0.82,0.23 1.41,0.48 2.15,0.8 0.88,0.37 1.84,1.06 2.62,1.6 0.22,0.16 0.44,0.32 0.65,0.51 0.12,0.09 0.21,0.17 0.32,0.26 0.45,0.4 0.81,0.72 1.21,1.17 0.1,0.11 0.2,0.2 0.31,0.31 0.21,0.2 0.37,0.43 0.56,0.65 0.6,0.68 1.45,2.09 1.84,2.91 0.08,0.15 0.1,0.25 0.18,0.4 0.23,0.46 0.64,1.72 0.77,2.23 0.51,2.03 0.6,4.44 0.2,6.43 -0.21,1.1 -0.55,1.88 -0.8,2.78 -0.04,0.17 -0.06,0.3 -0.12,0.46 -0.1,0.26 -0.19,0.16 -0.24,0.38 0.27,0.14 1.27,0.26 1.69,0.33l3.53 0.54c0.49,0.08 1.35,0.26 1.76,0.3 0.55,-0.81 0.83,-1.58 1.1,-2.53 0.8,-2.8 0.92,-6.57 0.34,-9.48 -0.18,-0.88 -0.45,-2.03 -0.92,-2.8 -0.08,-0.13 -0.13,-0.19 -0.2,-0.33 -0.77,0.07 -1.2,0.41 -3,0.41 -1.49,0 -3.48,-0.99 -4.49,-2.01 -1.07,-1.07 -2.05,-2.89 -2.05,-4.49 0,-1.5 0.03,-1.26 0.39,-2.65 0.05,-0.21 0.14,-0.39 0.15,-0.62l-2.15 -0.94c-1.48,-0.5 -4.36,-0.98 -5.92,-0.98 -2.13,0 -4.04,0.38 -5.7,0.84 -1.97,0.55 -4.88,1.95 -6.42,3.38 -0.59,0.54 -1.1,1.05 -1.66,1.61 -0.77,0.77 -1.64,1.8 -2.22,2.71 -0.15,0.24 -0.51,0.82 -0.57,1.08l0 0z"/>
    <path class="fil1" d="M0.99 19.08c0,2.13 0.17,3.24 0.67,5.28l0.36 1.39c0.22,-0.05 0.44,-0.15 0.65,-0.24 0.5,-0.22 1.64,-0.57 2.21,-0.57 1.21,0 2.25,0.05 3.38,0.61 0.65,0.33 1.75,1.05 2.2,1.65 0.12,0.15 0.2,0.29 0.31,0.46l1.24 1.84c0.22,0.41 0.22,1.49 0.22,2.03 0,2.58 -1.34,3.93 -1.44,4.29 0.44,0.65 3.18,1.43 3.78,1.6 1.49,0.43 3.02,0.68 4.56,0.73l1.37 0c1.3,-0.04 2.59,-0.22 3.87,-0.53 1.13,-0.28 2.9,-0.9 3.91,-1.51l0.98 -0.54c0.21,-0.1 0.31,-0.19 0.5,-0.31l1.59 -1.09c0.09,-0.07 0.14,-0.12 0.23,-0.18l1.24 -1.04c0.47,-0.42 0.96,-0.85 1.35,-1.34 0.07,-0.09 0.12,-0.13 0.19,-0.21 0.41,-0.51 1.47,-1.85 1.52,-2.43 -0.19,0.05 -0.9,0.83 -1.09,1.02 -1.01,1.01 -1.34,1.18 -2.37,1.93 -1.14,0.82 -3.09,1.59 -4.47,1.98 -2.95,0.82 -6.21,0.68 -9.12,-0.29 -0.25,-0.08 -0.46,-0.16 -0.69,-0.25 -0.65,-0.25 -1.3,-0.53 -1.92,-0.9 -0.86,-0.53 -2.12,-1.18 -2.86,-1.84 -0.2,-0.18 -0.35,-0.26 -0.54,-0.45 -0.1,-0.1 -0.13,-0.13 -0.24,-0.21 -0.33,-0.27 -0.71,-1.02 -0.97,-1.4 -0.39,-0.58 -1.49,-2.34 -1.77,-2.93 -0.6,-1.25 -1.1,-2.99 -1.29,-4.36 -0.15,-1.07 -0.13,-1.75 -0.13,-2.82 0,-1.87 0.5,-2.79 0.91,-4.19 0.11,-0.39 0.36,-0.99 0.39,-1.36 -0.26,-0.06 -0.58,-0.09 -0.85,-0.14 -0.31,-0.05 -0.57,-0.09 -0.88,-0.14l-5.21 -0.84c-0.21,0.4 -0.79,1.95 -0.94,2.42 -0.1,0.31 -0.15,0.6 -0.26,0.91 -0.3,0.93 -0.59,2.93 -0.59,3.97l0 0z"/>
    <path class="fil1" d="M41.57 10.7c1.65,0 3.52,-0.74 4.51,-2.06 1.59,-2.13 1.29,-5.05 -0.36,-7.02 -0.19,-0.22 -0.43,-0.41 -0.65,-0.6 -0.71,-0.56 -1.81,-1.02 -2.83,-1.02 -1.12,0 -1.68,0.06 -2.68,0.46 -1.17,0.47 -2.23,1.37 -2.72,2.56 -0.41,0.98 -0.52,1.76 -0.42,2.79 0.09,0.9 0.4,1.75 0.87,2.5 0.84,1.37 2.36,2.39 4.28,2.39z"/>
    <path class="fil1" d="M0 31.44c0,1.11 0.06,1.6 0.54,2.55 0.5,1 1.28,1.77 2.24,2.33 1.94,1.12 4.81,0.8 6.44,-0.82 0.11,-0.11 0.2,-0.2 0.31,-0.31 0.11,-0.12 0.19,-0.26 0.29,-0.39 0.09,-0.13 0.18,-0.28 0.26,-0.41 0.79,-1.37 0.85,-3.33 0.25,-4.82 -0.13,-0.34 -0.23,-0.55 -0.4,-0.85 -0.33,-0.52 -0.73,-0.97 -1.2,-1.35 -0.15,-0.12 -0.19,-0.16 -0.37,-0.26 -0.14,-0.09 -0.27,-0.18 -0.42,-0.25 -1.88,-0.91 -4.42,-0.68 -6.05,0.69 -0.29,0.25 -0.7,0.68 -0.92,1 -0.18,0.25 -0.37,0.53 -0.48,0.82 -0.29,0.7 -0.49,1.21 -0.49,2.07z"/>
    <path class="fil2" d="M17.47 28.71l-0.58 -0.32 -1.02 -0.86c-0.09,-0.11 -0.1,-0.14 -0.2,-0.25 -0.59,-0.59 -1,-1.17 -1.5,-1.82 -0.08,-0.11 -0.11,-0.15 -0.19,-0.26 -0.07,-0.1 -0.15,-0.18 -0.18,-0.3 -0.19,0.05 -0.27,0.2 -0.4,0.32 -0.2,0.21 -0.5,0.56 -0.59,0.85 -0.07,0.21 0.02,0.32 0.12,0.49 0.37,0.58 0.82,1.11 1.3,1.58 0.14,0.13 0.24,0.19 0.38,0.33 0.09,0.09 0.1,0.09 0.2,0.16 0.09,0.07 0.11,0.11 0.19,0.17l0.81 0.62c0.34,0.21 0.38,0.42 0.95,0.06 0.23,-0.15 0.64,-0.54 0.71,-0.78l0 0.01z"/>
    <path class="fil2" d="M10.57 19.08c0,0.73 0.1,1.49 0.18,2.15 0.04,0.28 0.03,0.41 0.61,0.55 0.25,0.06 0.79,0.09 1,-0.02 0.04,-0.07 0.03,0.02 0,-0.09 -0.11,-0.55 -0.11,0 -0.18,-1.16 -0.01,-0.19 -0.04,-0.16 -0.04,-0.31l0.14 -1.79c0.02,-0.2 0.06,-0.43 0.1,-0.66 0.08,-0.44 0.16,-0.86 0.25,-1.27 -0.26,0 -0.33,-0.05 -0.54,-0.05 -0.14,0.01 -0.34,0.04 -0.53,0.06 -0.5,0.05 -0.62,0.18 -0.72,0.49 -0.15,0.48 -0.27,1.47 -0.27,2.1l0 0z"/>
    <path class="fil2" d="M13.84 13.88c0.36,-0.76 0.76,-1.23 1.4,-1.82l1.8 -1.47c0.16,-0.12 0.39,-0.33 0.56,-0.38 -0.04,-0.16 -0.15,-0.22 -0.26,-0.32 -0.26,-0.26 -0.72,-0.67 -1.13,-0.67 -0.16,0 -1.1,0.73 -1.31,0.93 -0.2,0.2 -0.36,0.37 -0.56,0.56 -0.3,0.31 -1.44,1.68 -1.51,1.94 -0.09,0.35 0.42,0.82 0.64,1.02 0.11,0.1 0.19,0.2 0.37,0.21l0 0z"/>
    <path class="fil2" d="M20.47 30.32c0,0.28 0.03,0.57 0.1,0.8 0.09,0.34 0.12,0.44 0.38,0.51 1.21,0.31 2.66,0.24 3.88,0.04 0.16,-0.02 0.72,-0.12 0.81,-0.16 0.28,-0.15 0.29,-0.77 0.29,-1.06 0,-0.25 -0.04,-0.26 -0.04,-0.49 -0.3,0.02 -0.69,0.27 -1.48,0.27 -1.6,0 -1.67,-0.02 -3.22,-0.19 -0.23,-0.03 -0.43,-0.08 -0.72,-0.08l0 0.36 0 0z"/>
    <path class="fil2" d="M20.52 9.14c1.07,-0.58 3.36,-0.3 4.57,-0.19 0.27,0.03 0.55,0.1 0.8,0.1 0,-0.43 0.03,-1.53 -0.48,-1.67 -1.25,-0.36 -2.94,-0.19 -4.15,0.04 -0.12,0.03 -0.49,0.08 -0.56,0.11 -0.34,0.16 -0.34,1.29 -0.18,1.61l0 0z"/>
    <path class="fil2" d="M33.59 16.61c0.02,0.24 0.36,0.82 0.36,1.97 0,1.16 0.02,1.64 -0.13,2.79 -0.02,0.22 -0.05,0.33 -0.05,0.57 0.42,0 1.38,-0.05 1.62,-0.35 0.2,-0.23 0.22,-1.35 0.22,-1.8 0,-0.73 -0.09,-1.39 -0.21,-2.03 -0.17,-0.95 -0.19,-1.24 -1.09,-1.24 -0.32,0 -0.46,0.07 -0.72,0.09l0 0z"/>
    <path class="fil2" d="M28.76 10.26l0.62 0.31c0.54,0.31 1.3,1.09 1.74,1.53 0.11,0.11 0.12,0.16 0.22,0.27 0.08,0.09 0.15,0.13 0.22,0.23l1.09 1.28c0.23,-0.15 0.9,-0.97 0.9,-1.34 0,-0.21 -0.54,-0.82 -0.71,-1 -0.11,-0.12 -0.14,-0.19 -0.27,-0.31 -0.38,-0.39 -0.79,-0.74 -1.22,-1.07l-1.36 -0.91c-0.22,-0.06 -0.66,0.26 -0.81,0.4 -0.16,0.17 -0.37,0.38 -0.42,0.61z"/>
    <path class="fil2" d="M28.93 28.75c0.2,0.29 1.03,0.92 1.35,0.93 0.31,0.01 1.24,-0.85 1.52,-1.11 0,-0.01 0.01,-0.02 0.02,-0.03l1.41 -1.67c0.5,-0.7 0.53,-0.66 0.32,-1.12 -0.14,-0.31 -0.61,-0.65 -0.9,-0.81 -0.18,0.79 -1.08,1.55 -1.64,2.12l-1.26 1.07c-0.12,0.09 -0.16,0.14 -0.27,0.22l-0.55 0.4 0 0z"/>
    <path class="fil2" d="M32.16 19.52c0,0.33 -0.03,0.48 -0.05,0.76 -0.01,0.25 -0.07,0.5 -0.09,0.72 0.05,0.19 0.87,0.9 1.48,0.9 0.2,0 0.32,-1.87 0.32,-2.24 0,-0.77 -0.11,-1.65 -0.28,-2.36 -0.14,-0.61 0.02,-0.98 -1.01,-0.36 -1.02,0.62 -0.37,0.67 -0.37,2.58l0 0z"/>
    <path class="fil2" d="M12.36 19.52c0,0.84 0.06,1.58 0.23,2.29 0.6,0 1.22,-0.45 1.52,-0.76 -0.1,-1.23 -0.19,-1.95 0.1,-3.22 0.1,-0.43 0.1,-0.26 -0.25,-0.71 -0.1,-0.12 -0.19,-0.17 -0.32,-0.26 -0.19,-0.14 -0.54,-0.33 -0.83,-0.34 -0.27,1.14 -0.45,1.73 -0.45,3l0 0z"/>
    <path class="fil2" d="M28.4 26.87c0,0.78 -0.15,0.88 0.4,1.7 0.42,-0.1 1.76,-1.3 2.12,-1.64 0.17,-0.17 0.27,-0.32 0.44,-0.5 0.33,-0.33 1.01,-1.31 1.2,-1.66 -0.73,-0.39 -0.77,-0.41 -1.57,-0.41 -0.12,0 -0.42,0.47 -0.58,0.67 -0.31,0.4 -0.58,0.65 -0.93,1 -0.22,0.23 -0.81,0.7 -1.08,0.84l0 0z"/>
    <path class="fil2" d="M13.93 14.11c0.72,0.38 0.81,0.4 1.57,0.4 0.15,0 0.34,-0.38 0.44,-0.5 0.06,-0.08 0.11,-0.11 0.17,-0.19l0.47 -0.51c0.35,-0.4 0.8,-0.78 1.26,-1.08 0.36,-0.23 0.3,-0.15 0.3,-0.86 0,-0.51 -0.3,-0.8 -0.36,-1.03 -0.19,0.02 -0.68,0.38 -0.87,0.52 -0.48,0.37 -0.89,0.69 -1.31,1.11 -0.33,0.33 -0.6,0.62 -0.9,0.99 -0.16,0.2 -0.71,0.93 -0.77,1.15z"/>
    <path class="fil2" d="M28.13 11.78c0,0.24 0.07,0.25 0.34,0.42 0.15,0.1 0.26,0.18 0.39,0.28 0.13,0.12 0.23,0.19 0.37,0.3 0.35,0.28 1.02,1.01 1.3,1.39 0.24,0.33 0.26,0.29 0.69,0.29 0.43,0 1.04,-0.21 1.21,-0.44 -0.06,-0.23 -0.59,-0.88 -0.76,-1.09 -0.21,-0.26 -0.9,-0.98 -1.15,-1.17 -0.35,-0.27 -1.52,-1.27 -1.94,-1.37 -0.26,0.17 -0.45,0.92 -0.45,1.39z"/>
    <path class="fil2" d="M20.52 29.74c0.56,0.27 2.43,0.31 3.22,0.31 0.41,0 0.73,-0.05 1.11,-0.1 0.15,-0.02 0.34,-0.05 0.5,-0.08 0.18,-0.03 0.36,-0.09 0.54,-0.09 0,-0.47 -0.33,-1.01 -0.64,-1.33 -0.23,-0.24 -0.43,-0.1 -0.76,-0.07 -0.9,0.09 -1.91,0.1 -2.81,-0.08 -0.37,-0.08 -0.7,0.36 -0.88,0.65 -0.19,0.32 -0.19,0.39 -0.28,0.79z"/>
    <path class="fil2" d="M13.97 24.72c0.01,0.3 0.53,0.96 0.71,1.18l0.41 0.52c0.15,0.19 0.31,0.32 0.48,0.51 0.13,0.16 0.32,0.31 0.48,0.47l1.03 0.84c0.19,0.12 0.41,0.33 0.61,0.37 0.31,-0.57 0.45,-0.75 0.45,-1.52 0,-0.16 -0.4,-0.34 -0.71,-0.64 -0.13,-0.12 -0.22,-0.17 -0.35,-0.31 -0.48,-0.48 -0.87,-0.89 -1.23,-1.46 -0.22,-0.34 -0.21,-0.27 -0.89,-0.27 -0.49,0 -0.65,0.23 -0.99,0.31l0 0z"/>
    <path class="fil2" d="M20.47 9.36c0,0.38 0.47,1.13 0.77,1.33 0.14,0.1 0.59,-0.01 0.9,-0.06 0.81,-0.11 1.71,-0.08 2.5,0.07 0.23,0.04 0.22,0.06 0.38,-0.06 0.24,-0.17 0.35,-0.31 0.52,-0.56 0.21,-0.3 0.21,-0.41 0.3,-0.81 -0.38,-0.18 -1.92,-0.31 -2.55,-0.31 -0.46,0 -2.82,0.18 -2.82,0.4l0 0z"/>
    <path class="fil2" d="M21.68 10.97c0.2,0.85 0.31,0.44 0.31,1.88l1.35 0c0.4,0 0.63,-0.04 1.03,-0.04 0,-1.53 0.25,-1.54 0.35,-1.93 -0.68,-0.16 -1.55,-0.17 -2.26,-0.07 -0.29,0.04 -0.54,0.14 -0.78,0.16l0 0z"/>
    <path class="fil2" d="M27.14 13.93l1.75 1.61 1.34 -1.03c0.1,-0.04 0.18,-0.05 0.27,-0.09 -0.29,-0.44 -0.61,-0.8 -1,-1.15 -0.2,-0.2 -1.01,-0.8 -1.28,-0.87 -0.04,0.46 -0.77,1.32 -1.08,1.53l0 0z"/>
    <path class="fil2" d="M15.99 14.46c0.47,0.11 0.74,0.36 1.02,0.59 0.09,0.07 0.11,0.08 0.2,0.16 0.13,0.12 0.21,0.24 0.35,0.33l1.62 -1.6c-0.07,-0.22 -0.7,-0.69 -0.99,-1.4 -0.05,-0.1 -0.05,-0.18 -0.09,-0.27l-0.64 0.44c-0.45,0.37 -1.35,1.29 -1.47,1.75l0 0z"/>
    <path class="fil2" d="M29.92 20.51c1.54,0 1.71,0.29 1.97,0.31 0,-0.74 0.2,-0.97 0.01,-2.12 -0.05,-0.34 -0.12,-0.54 -0.19,-0.83 -0.24,0.02 -0.6,0.32 -1.43,0.31 -0.21,0 -0.44,-0.05 -0.48,0.09 -0.04,0.14 0.12,1.86 0.12,2.24l0 0z"/>
    <path class="fil2" d="M21.68 28.12c0.92,0.22 2.09,0.17 3,-0.04 -0.02,-0.2 -0.12,-0.32 -0.19,-0.71 -0.09,-0.43 -0.08,-0.72 -0.08,-1.17 -2.69,0 -2.36,-0.17 -2.37,0.45 -0.01,0.26 -0.11,0.77 -0.18,1.03 -0.06,0.19 -0.14,0.26 -0.18,0.44l0 0z"/>
    <path class="fil2" d="M15.95 24.45c0.12,0.56 1.66,2.02 2.15,2.15 0.16,-0.69 0.93,-1.24 1.11,-1.52l-1.6 -1.63c-0.14,0.05 -0.52,0.41 -0.75,0.57 -0.23,0.16 -0.59,0.4 -0.91,0.43z"/>
    <path class="fil2" d="M27.32 25.03c0.27,0.4 1.03,1.03 1.08,1.61 0.19,-0.05 0.48,-0.31 0.64,-0.43 0.22,-0.19 0.35,-0.31 0.56,-0.52l0.48 -0.59c0.15,-0.2 0.31,-0.43 0.42,-0.65 -0.14,-0.07 -0.29,-0.11 -0.44,-0.19 -0.54,-0.25 -0.93,-0.75 -1.13,-0.88l-1.61 1.65 0 0z"/>
    <path class="fil2" d="M14.2 19.17c0,0.43 0.02,1.23 0.18,1.56 0.66,-0.35 1.24,-0.27 1.88,-0.22l0.09 -2.33c-0.16,0 -0.33,-0.03 -0.54,-0.05 -0.8,-0.05 -1.17,-0.34 -1.39,-0.4 -0.11,0.24 -0.22,1.05 -0.22,1.44l0 0z"/>
    <path class="fil2" d="M33.59 12.14c0,-0.15 0.02,-0.22 0.03,-0.34 0.02,-0.2 -0.08,-0.82 -0.14,-1.02 -0.1,-0.32 -0.39,-0.78 -0.62,-0.95 -0.8,-0.61 -1.32,-0.74 -2.45,-0.74l3.18 3.05z"/>
    <path class="fil2" d="M20.92 7.16c0.21,0 0.38,-0.04 0.67,-0.04 1.77,0.01 1.79,-0.12 3.72,0.04 -0.06,-0.2 -0.26,-0.31 -0.39,-0.45 -1.03,-1.04 -2.47,-0.91 -3.59,0.02 -0.16,0.13 -0.36,0.22 -0.41,0.43l0 0z"/>
    <path class="fil2" d="M9.36 18.99c0,0.56 0.11,0.96 0.36,1.38 0.1,0.17 0.2,0.34 0.32,0.49 0.14,0.2 0.24,0.37 0.4,0.41 0,-0.37 0,-0.75 0,-1.12l0.07 -1.62c0.05,-0.33 0,-0.97 0.15,-1.6 -0.4,0.1 -1.3,1.12 -1.3,2.06l0 0z"/>
    <path class="fil2" d="M23.07 33.05c0.89,0 1.93,-0.52 2.33,-1.12l-3.36 0c-0.34,0 -0.73,-0.08 -1.03,-0.09 0.28,0.53 1.24,1.21 2.06,1.21z"/>
    <path class="fil2" d="M12.68 26.91c0,1.5 0.48,2.26 1.81,2.71 0.3,0.1 0.87,0.2 1.23,0.2 -0.05,-0.18 -0.22,-0.28 -0.35,-0.41l-0.61 -0.6c0,0 -0.01,-0.01 -0.02,-0.02l-1.29 -1.35c-0.15,-0.15 -0.23,-0.23 -0.36,-0.4 -0.13,-0.15 -0.24,-0.3 -0.37,-0.44 -0.01,0.14 -0.04,0.16 -0.04,0.31l0 0z"/>
    <path class="fil2" d="M12.68 12.23c0.15,-0.11 0.25,-0.23 0.37,-0.39 0.12,-0.15 0.24,-0.25 0.38,-0.39 0.27,-0.27 0.51,-0.51 0.78,-0.78l1.42 -1.31c0.11,-0.07 0.15,-0.08 0.22,-0.18 -0.25,-0.14 -1.89,-0.1 -2.57,0.88 -0.4,0.57 -0.6,1.21 -0.6,2.17l0 0z"/>
    <path class="fil2" d="M30.73 29.74c0.63,0 0.88,0.02 1.38,-0.14 0.35,-0.12 0.72,-0.31 0.98,-0.59 0.28,-0.3 0.43,-0.62 0.57,-1 0.12,-0.38 0.2,-0.88 0.2,-1.37 -0.2,0.06 -0.49,0.47 -0.77,0.76l-1.14 1.18c-0.16,0.16 -0.27,0.22 -0.43,0.38l-0.79 0.78z"/>
    <path class="fil2" d="M35.7 21.32c0.64,-0.34 1.12,-1.3 1.12,-2.06 0,-1.03 -0.57,-1.51 -0.99,-2.07 -0.1,-0.13 -0.08,-0.13 -0.27,-0.17 0.12,0.25 0.13,2.59 0.18,3.18 0.03,0.39 -0.04,0.7 -0.04,1.12z"/>
    <path class="fil2" d="M16.53 20.29c0,0.24 0.7,0.11 1.12,0.09 0.4,-0.02 0.1,-0.32 0.13,-0.99 0.03,-0.62 0.22,-1.01 -0.04,-1.07l-1.21 -0.14 0 2.11z"/>
    <path class="fil2" d="M17.74 23.24c0.01,0.19 0.09,0.16 0.37,0.44 0.16,0.16 1.15,1.09 1.28,1.13 0.1,-0.07 0.77,-0.8 0.81,-0.94 -0.07,-0.09 -0.26,-0.23 -0.37,-0.31l-0.55 -0.52c-0.07,-0.07 -0.09,-0.11 -0.17,-0.19 -0.12,-0.14 -0.19,-0.27 -0.34,-0.37l-0.76 0.59c-0.1,0.07 -0.15,0.14 -0.27,0.17z"/>
    <path class="fil2" d="M23.34 24.72l-0.68 0c-0.25,0 -0.26,-0.05 -0.49,-0.05 0,0.45 -0.1,0.94 -0.13,1.35 0.8,0 1.48,-0.09 2.28,-0.09 0,-0.45 -0.09,-0.84 -0.09,-1.3 -0.31,0.02 -0.52,0.09 -0.89,0.09z"/>
    <path class="fil2" d="M22.13 13.12c0,0.22 0.04,1.13 0.11,1.23 0.07,0.11 0.19,0.01 0.52,-0.02 1.13,-0.09 0.66,0 1.52,0 0,-0.48 0.09,-0.87 0.09,-1.34 -0.78,0 -1.47,0.13 -2.24,0.13z"/>
    <path class="fil2" d="M17.83 15.67c0.1,0.15 0.3,0.28 0.45,0.4 0.16,0.13 0.32,0.29 0.49,0.41 0.14,-0.1 0.22,-0.23 0.34,-0.37 0.4,-0.5 1.05,-1.02 1.09,-1.06 -0.13,-0.21 -0.68,-0.77 -0.85,-1.03 -0.27,0.18 -0.7,0.74 -0.95,1.02l-0.57 0.63z"/>
    <path class="fil2" d="M26.25 15.27c0.17,0.05 0.43,0.29 0.57,0.41 0.09,0.07 0.11,0.07 0.2,0.16 0.15,0.15 0.61,0.56 0.66,0.73 0.14,-0.04 0.8,-0.64 0.96,-0.79 0.11,-0.09 0.08,0 0.12,-0.15 -0.22,-0.06 -1.4,-1.19 -1.71,-1.39l-0.73 0.83c-0.09,0.14 -0.05,-0.02 -0.07,0.2l0 0z"/>
    <path class="fil2" d="M28.26 18.45c0,0.27 0.08,0.44 0.09,0.72 0.02,0.8 0.09,0.3 -0.01,1.29l1.4 0.09 -0.17 -1.75c-0.1,-0.84 0.13,-0.35 -1.31,-0.35l0 0z"/>
    <path class="fil2" d="M26.29 23.91l0.9 1.03c0.18,-0.26 0.8,-0.92 1.07,-1.26 0.15,-0.19 0.23,-0.2 0.36,-0.44 -0.1,-0.15 -0.32,-0.29 -0.48,-0.42 -0.18,-0.14 -0.32,-0.26 -0.51,-0.38 -0.3,0.45 -0.57,0.75 -0.97,1.13 -0.15,0.14 -0.25,0.17 -0.37,0.34l0 0z"/>
    <path class="fil2" d="M19.48 19.17l-0.04 0.9c0.02,0.18 0.04,0.21 0.75,0.11 0.62,-0.07 0.5,0.21 0.5,-1.28 0,-0.18 -0.32,-0.17 -0.52,-0.2 -0.2,-0.02 -0.43,-0.07 -0.69,-0.07l0 0.54 0 0z"/>
    <path class="fil2" d="M22.39 23.06l1.62 0c0,-0.13 -0.05,-1.21 -0.18,-1.21 -1.44,0 -1.33,0.02 -1.35,0.27l-0.09 0.94z"/>
    <path class="fil2" d="M24.45 21.72c0.1,0.14 0.65,0.82 0.77,0.89 0.22,-0.05 0.41,-0.39 0.57,-0.54 0.17,-0.18 0.42,-0.38 0.55,-0.58 -0.07,-0.09 -0.33,-0.28 -0.44,-0.36 -0.13,-0.09 -0.38,-0.32 -0.5,-0.35 -0.36,0.24 -0.6,0.71 -0.95,0.94l0 0z"/>
    <path class="fil2" d="M25.44 18.9c0,0.23 0.05,0.34 0.05,0.62 -0.01,0.2 0,0.49 0.04,0.63 0.04,0.15 0,0.12 0.17,0.14l1.04 0.04c0,-0.3 -0.05,-0.46 -0.04,-0.81 0,-0.34 -0.05,-0.48 -0.05,-0.8 -0.25,0.06 -0.95,0.18 -1.21,0.18z"/>
    <path class="fil2" d="M22.44 15.99c0.06,0.27 0.13,0.83 0.13,1.16 0.39,0 1.15,0.05 1.44,-0.09 0,-0.28 0.02,-0.41 0.04,-0.63 0.06,-0.75 0.18,-0.44 -1.61,-0.44l0 0z"/>
    <path class="fil2" d="M20.11 21.49l1.11 1.13c0.2,-0.13 0.27,-0.27 0.43,-0.44l0.39 -0.46 -0.98 -0.95 -0.95 0.72 0 0z"/>
    <path class="fil2" d="M20.1 17.45c0.12,0.17 0.77,0.65 0.95,0.78 0.2,-0.3 0.69,-0.68 0.9,-0.99 -0.04,-0.15 -0.66,-0.82 -0.76,-0.9l-1.09 1.11 0 0z"/>
    <path class="fil2" d="M24.55 17.46l0.98 0.9 0.9 -0.76c-0.15,-0.22 -0.36,-0.37 -0.57,-0.55 -0.23,-0.2 -0.32,-0.38 -0.6,-0.53 -0.08,0.06 -0.12,0.14 -0.18,0.22l-0.36 0.45c-0.08,0.1 -0.14,0.15 -0.17,0.27l0 0z"/>
    <path class="fil2" d="M22.39 24.36c2.01,0 1.81,0.13 1.74,-0.39 -0.02,-0.15 -0.04,-0.39 -0.08,-0.55 -0.48,0 -0.96,0 -1.43,0 -0.39,-0.01 -0.32,0.03 -0.31,0.4 0,0.26 -0.14,0.54 0.08,0.54l0 0z"/>
    <path class="fil2" d="M18.14 20.33c0.1,0 0.83,-0.05 0.87,-0.07 0.19,-0.08 0.12,-0.58 0.12,-0.82 -0.01,-0.93 0.33,-0.95 -0.9,-0.95l-0.09 1.84 0 0z"/>
    <path class="fil2" d="M19.03 16.7c0.3,0.16 0.47,0.38 0.77,0.54l1.17 -1.15c-0.05,-0.17 -0.03,-0.09 -0.13,-0.21l-0.46 -0.52 -0.68 0.66c-0.19,0.19 -0.53,0.48 -0.67,0.68z"/>
    <path class="fil2" d="M25.49 16.21c0.03,0.04 0.52,0.51 0.6,0.56 0.23,0.18 0.4,0.42 0.61,0.56 0.22,-0.06 0.59,-0.45 0.71,-0.63 -0.29,-0.19 -0.42,-0.4 -0.69,-0.6 -0.31,-0.25 -0.49,-0.55 -0.7,-0.61l-0.53 0.72 0 0z"/>
    <path class="fil2" d="M22.39 15.63c0.6,0 1.08,-0.05 1.71,-0.05 0.08,-0.33 0.04,-0.49 0.04,-0.89l-1.88 0c0.01,0.29 0.11,0.65 0.13,0.94l0 0z"/>
    <path class="fil2" d="M25.49 22.93c0.15,0.23 0.44,0.46 0.58,0.67 0.12,-0.08 0.21,-0.19 0.32,-0.3l0.65 -0.7c0.25,-0.26 0.27,-0.12 0.33,-0.34 -0.08,-0.11 -0.58,-0.47 -0.72,-0.54l-0.73 0.71c-0.25,0.29 -0.33,0.29 -0.43,0.5l0 0z"/>
    <path class="fil2" d="M27.01 18.67l0.09 1.71 0.94 0c-0.01,-0.2 -0.04,-0.19 -0.05,-0.41 0,-0.16 0.01,-0.33 0.01,-0.49 -0.01,-0.23 -0.04,-0.25 -0.05,-0.45 -0.01,-0.15 0,-0.33 0,-0.49 -0.28,0 -0.71,0.08 -0.94,0.13z"/>
    <path class="fil2" d="M19.13 22.3c0.21,0.32 0.93,0.86 1.25,1.34 0.15,-0.09 0.2,-0.21 0.33,-0.34 0.09,-0.11 0.23,-0.27 0.3,-0.37l-1.2 -1.22c-0.1,0.07 -0.63,0.52 -0.68,0.59z"/>
   </g>
   <g>
    <path class="fil3" d="M62.87 35.36l-1.5 0c-0.14,-0.55 -0.2,-1.2 -0.2,-1.95 0,-0.6 -0.13,-1.02 -0.37,-1.26 -0.24,-0.24 -0.64,-0.36 -1.22,-0.36l-2.92 0 0 3.57 -1.22 0 0 -8.35 4.16 0c0.98,0 1.71,0.19 2.2,0.56 0.49,0.37 0.73,0.95 0.73,1.73 0,0.91 -0.42,1.57 -1.25,1.98 0.36,0.14 0.63,0.32 0.79,0.55 0.16,0.23 0.25,0.61 0.28,1.15l0.06 1.36c0.01,0.16 0.03,0.31 0.07,0.46 0.04,0.15 0.17,0.27 0.39,0.38l0 0.18 0 0zm-1.59 -5.97c0,-0.48 -0.14,-0.83 -0.42,-1.05 -0.27,-0.23 -0.66,-0.35 -1.18,-0.35l-3.02 0 0 2.86 2.8 0c1.21,0 1.82,-0.48 1.82,-1.46l0 0zm-2.43 -3.24l0 0 0 0zm0.16 9.21l0 0 0 0zm-4.67 -8.57l0 0 0 0z"/>
   </g>
   <g>
    <path id="_1" class="fil3" d="M73.61 35.36l0 -8.35 6.6 0 0 0.98 -5.38 0 0 2.6 4.97 0 0 0.98 -4.97 0 0 2.81 5.48 0 0 0.98 -6.7 0 0 0zm3.31 -9.21l0 0 0 0zm1.9 9.21l0 0 0 0zm-6.29 -8.57l0 0 0 0z"/>
   </g>
   <g>
    <path id="_2" class="fil3" d="M90.62 32.68l1.14 0 0 0c0.07,1.28 0.91,1.91 2.54,1.91 0.75,0 1.31,-0.11 1.7,-0.35 0.39,-0.23 0.58,-0.61 0.58,-1.11 0,-0.32 -0.11,-0.59 -0.32,-0.8 -0.21,-0.22 -0.74,-0.42 -1.59,-0.6l-1.86 -0.39c-0.59,-0.14 -1.05,-0.36 -1.39,-0.68 -0.34,-0.32 -0.51,-0.76 -0.51,-1.32 0,-0.77 0.28,-1.39 0.83,-1.85 0.55,-0.47 1.34,-0.7 2.37,-0.7 0.94,0 1.72,0.2 2.34,0.62 0.63,0.41 0.97,1.08 1.02,2.02l0 0 -1.14 0 0 0c-0.12,-1.11 -0.86,-1.66 -2.23,-1.66 -0.6,0 -1.09,0.13 -1.46,0.37 -0.37,0.24 -0.55,0.6 -0.55,1.07 0,0.27 0.09,0.5 0.26,0.68 0.18,0.18 0.51,0.32 1,0.42l2.37 0.53c0.68,0.14 1.19,0.39 1.53,0.75 0.34,0.36 0.51,0.85 0.51,1.48 0,0.81 -0.32,1.43 -0.97,1.86 -0.64,0.44 -1.52,0.65 -2.63,0.65 -1.16,0 -2.04,-0.26 -2.64,-0.79 -0.6,-0.52 -0.9,-1.23 -0.9,-2.11l0 0zm3.51 -6.53l0 0 0 0zm0 9.21l0 0 0 0z"/>
   </g>
   <g>
    <path id="_3" class="fil3" d="M108.61 35.36l0 -8.35 6.6 0 0 0.98 -5.38 0 0 2.6 4.97 0 0 0.98 -4.97 0 0 2.81 5.48 0 0 0.98 -6.7 0 0 0zm3.31 -9.21l0 0 0 0zm1.9 9.21l0 0 0 0zm-6.29 -8.57l0 0 0 0z"/>
   </g>
   <g>
    <path id="_4" class="fil3" d="M125.21 35.36l3.42 -8.35 1.39 0 3.23 8.35 -1.33 0 -0.87 -2.44 0 0 -3.64 0 0 0 -0.95 2.44 -1.25 0zm2.59 -3.43l0 0 2.81 0 0 0 -1.33 -3.71 -0.01 0 -1.47 3.71zm1.49 -5.78l0 0 0 0zm2.77 9.21l0 0 0 0zm-7.03 -8.57l0 0 0 0z"/>
   </g>
   <g>
    <path id="_5" class="fil3" d="M151.06 35.36l-1.5 0c-0.14,-0.55 -0.2,-1.2 -0.2,-1.95 0,-0.6 -0.13,-1.02 -0.37,-1.26 -0.24,-0.24 -0.64,-0.36 -1.22,-0.36l-2.92 0 0 3.57 -1.22 0 0 -8.35 4.16 0c0.98,0 1.71,0.19 2.2,0.56 0.49,0.37 0.73,0.95 0.73,1.73 0,0.91 -0.42,1.57 -1.25,1.98 0.36,0.14 0.63,0.32 0.79,0.55 0.16,0.23 0.25,0.61 0.27,1.15l0.07 1.36c0.01,0.16 0.03,0.31 0.07,0.46 0.04,0.15 0.17,0.27 0.39,0.38l0 0.18 0 0zm-1.59 -5.97c0,-0.48 -0.14,-0.83 -0.42,-1.05 -0.27,-0.23 -0.67,-0.35 -1.18,-0.35l-3.02 0 0 2.86 2.79 0c1.22,0 1.83,-0.48 1.83,-1.46l0 0zm-2.43 -3.24l0 0 0 0zm0.16 9.21l0 0 0 0zm-4.67 -8.57l0 0 0 0z"/>
   </g>
   <g>
    <path id="_6" class="fil3" d="M168.1 32.32l1.17 0c-0.2,1.09 -0.64,1.9 -1.32,2.45 -0.68,0.54 -1.55,0.81 -2.61,0.81 -1.22,0 -2.2,-0.39 -2.95,-1.18 -0.74,-0.79 -1.12,-1.86 -1.12,-3.22 0,-1.33 0.38,-2.4 1.14,-3.2 0.76,-0.8 1.79,-1.19 3.09,-1.19 0.98,0 1.8,0.22 2.44,0.68 0.64,0.45 1.05,1.12 1.23,2.03l0 0 -1.17 0 0 0c-0.31,-1.15 -1.15,-1.73 -2.5,-1.73 -0.89,0 -1.6,0.3 -2.15,0.89 -0.55,0.58 -0.82,1.43 -0.82,2.55 0,1.03 0.24,1.86 0.73,2.47 0.49,0.61 1.22,0.92 2.18,0.92 0.71,0 1.28,-0.2 1.72,-0.58 0.45,-0.39 0.76,-0.96 0.94,-1.7l0 0zm-2.59 -6.17l0 0 0 0zm-0.15 9.21l0 0 0 0z"/>
   </g>
   <polygon id="_7" class="fil3" points="179.88,27.01 181.09,27.01 181.09,30.46 185.75,30.46 185.75,27.01 186.97,27.01 186.97,35.36 185.75,35.36 185.75,31.45 181.09,31.45 181.09,35.36 179.88,35.36 "/>
   <g>
    <path id="_8" class="fil3" d="M205.01 27.01l1.22 0 0 7.37 4.59 0 0 0.98 -5.81 0 0 -8.35zm1.26 -0.86l0 0 0 0zm1.65 9.21l0 0 0 0zm-3.86 -8.57l0 0 0 0z"/>
   </g>
   <g>
    <path id="_9" class="fil3" d="M220.35 35.36l3.42 -8.35 1.39 0 3.23 8.35 -1.33 0 -0.87 -2.44 0 0 -3.64 0 0 0 -0.95 2.44 -1.25 0zm2.6 -3.43l0 0 2.8 0 0 0 -1.33 -3.71 0 0 -1.47 3.71 0 0zm1.48 -5.78l0 0 0 0zm2.77 9.21l0 0 0 0zm-7.03 -8.57l0 0 0 0z"/>
   </g>
   <path id="_10" class="fil3" d="M238.6 35.36l0 -8.35 3.96 0c0.77,0 1.38,0.19 1.84,0.58 0.47,0.39 0.7,0.9 0.7,1.53 0,0.75 -0.4,1.32 -1.2,1.71 0.6,0.21 1.02,0.49 1.26,0.82 0.23,0.33 0.35,0.74 0.35,1.22 0,0.71 -0.26,1.3 -0.79,1.78 -0.53,0.47 -1.28,0.71 -2.26,0.71l-3.86 0zm1.22 -0.98l2.59 0c0.57,0 1.03,-0.13 1.37,-0.38 0.34,-0.25 0.52,-0.64 0.52,-1.16 0,-0.93 -0.7,-1.39 -2.11,-1.39l-2.37 0 0 2.93zm0 -3.88l2.19 0c1.25,0 1.87,-0.43 1.87,-1.3 0,-0.81 -0.62,-1.21 -1.85,-1.21l-2.21 0 0 2.51z"/>
   <g>
    <path id="_11" class="fil3" d="M255.76 32.68l1.14 0 0 0c0.07,1.28 0.91,1.91 2.54,1.91 0.75,0 1.31,-0.11 1.7,-0.35 0.39,-0.23 0.58,-0.61 0.58,-1.11 0,-0.32 -0.11,-0.59 -0.32,-0.8 -0.21,-0.22 -0.74,-0.42 -1.59,-0.6l-1.86 -0.39c-0.59,-0.14 -1.05,-0.36 -1.39,-0.68 -0.34,-0.32 -0.51,-0.76 -0.51,-1.32 0,-0.77 0.27,-1.39 0.83,-1.85 0.55,-0.47 1.34,-0.7 2.37,-0.7 0.95,0 1.73,0.2 2.34,0.62 0.63,0.41 0.97,1.08 1.02,2.02l0 0 -1.14 0 0 0c-0.12,-1.11 -0.86,-1.66 -2.23,-1.66 -0.6,0 -1.09,0.13 -1.46,0.37 -0.37,0.24 -0.55,0.6 -0.55,1.07 0,0.27 0.09,0.5 0.26,0.68 0.18,0.18 0.51,0.32 1,0.42l2.37 0.53c0.68,0.14 1.19,0.39 1.53,0.75 0.34,0.36 0.51,0.85 0.51,1.48 0,0.81 -0.32,1.43 -0.97,1.86 -0.64,0.44 -1.52,0.65 -2.63,0.65 -1.16,0 -2.04,-0.26 -2.64,-0.79 -0.6,-0.52 -0.9,-1.23 -0.9,-2.11l0 0zm3.51 -6.53l0 0 0 0zm0 9.21l0 0 0 0z"/>
   </g>
  </g>
 </g>
</svg>